<svg width="22" height="22" viewBox="0 0 22 22" fill="none" xmlns="http://www.w3.org/2000/svg">
<path d="M6.68759 21.1088C4.43352 21.1088 2.25408 21.1088 0.0149274 21.1088C0.0149274 20.8849 0.0149274 20.6908 0.0149274 20.4818C0.0149274 13.8838 0.0149277 7.27086 0 0.672833C0 0.120509 0.164204 -0.0138396 0.686672 0.00108807C2.47799 0.0309434 4.26931 0.0160161 6.06063 0.0160161C6.23976 0.0160161 6.43382 0.0160161 6.65774 0.0160161C6.65774 0.926604 6.65774 1.80734 6.65774 2.83734C6.89658 2.5985 7.03093 2.47908 7.16528 2.34473C10.106 -0.52138 15.2113 -0.775151 18.2267 1.79241C19.9732 3.28517 20.7345 5.27055 21.0032 7.47985C21.0928 8.24116 21.1077 9.00247 21.1077 9.76378C21.1226 13.3315 21.1077 16.8843 21.1077 20.452C21.1077 20.646 21.1077 20.855 21.1077 21.0939C18.8835 21.0939 16.7041 21.0939 14.4351 21.0939C14.4351 20.8849 14.4351 20.6759 14.4351 20.452C14.4351 17.1082 14.4351 13.7793 14.4351 10.4355C14.4351 9.85335 14.4052 9.27117 14.2858 8.71884C13.8827 6.67375 12.4497 5.5094 10.4344 5.53925C8.50877 5.56911 7.15035 6.76332 6.79209 8.80841C6.70252 9.2861 6.67267 9.77871 6.67267 10.2564C6.65774 13.645 6.67267 17.0485 6.67267 20.4371C6.68759 20.646 6.68759 20.855 6.68759 21.1088Z" fill="#E5E5E5"/>
</svg>
